<svg width="1600" height="900" viewBox="0 0 1600 900" fill="none" xmlns="http://www.w3.org/2000/svg">
  <defs>
    <linearGradient id="aurora-bg" x1="140" y1="42" x2="1386" y2="846" gradientUnits="userSpaceOnUse">
      <stop stop-color="#F8F2E8" />
      <stop offset="0.54" stop-color="#F1E6D5" />
      <stop offset="1" stop-color="#E8D8C1" />
    </linearGradient>
    <radialGradient id="aurora-a" cx="0" cy="0" r="1" gradientUnits="userSpaceOnUse" gradientTransform="translate(1248 164) rotate(90) scale(340 500)">
      <stop stop-color="#97C8FF" stop-opacity="0.36" />
      <stop offset="1" stop-color="#97C8FF" stop-opacity="0" />
    </radialGradient>
    <radialGradient id="aurora-b" cx="0" cy="0" r="1" gradientUnits="userSpaceOnUse" gradientTransform="translate(358 156) rotate(90) scale(360 560)">
      <stop stop-color="#6FA8FF" stop-opacity="0.26" />
      <stop offset="1" stop-color="#6FA8FF" stop-opacity="0" />
    </radialGradient>
    <radialGradient id="aurora-c" cx="0" cy="0" r="1" gradientUnits="userSpaceOnUse" gradientTransform="translate(884 742) rotate(90) scale(260 600)">
      <stop stop-color="#D9A25E" stop-opacity="0.16" />
      <stop offset="1" stop-color="#D9A25E" stop-opacity="0" />
    </radialGradient>
  </defs>
  <rect width="1600" height="900" fill="url(#aurora-bg)" />
  <circle cx="1248" cy="164" r="340" fill="url(#aurora-a)" />
  <circle cx="358" cy="156" r="360" fill="url(#aurora-b)" />
  <circle cx="884" cy="742" r="260" fill="url(#aurora-c)" />
  <path d="M-48 262C166 162 364 178 558 270C706 340 840 360 1032 302C1184 256 1340 200 1652 250" stroke="rgba(23, 21, 19, 0.07)" stroke-width="2" />
  <path d="M-26 530C184 442 404 448 626 538C820 616 1030 624 1232 558C1380 510 1502 470 1644 482" stroke="rgba(126, 183, 255, 0.14)" stroke-width="2" />
  <path d="M148 784C312 662 516 622 760 652C994 682 1204 760 1498 692" stroke="rgba(217, 162, 94, 0.12)" stroke-width="2" />
</svg>
