<svg width="1200" height="630" viewBox="0 0 1200 630" fill="none" xmlns="http://www.w3.org/2000/svg">
  <defs>
    <linearGradient id="social-bg" x1="86" y1="42" x2="1074" y2="572" gradientUnits="userSpaceOnUse">
      <stop stop-color="#08111A" />
      <stop offset="0.5" stop-color="#0E1B2B" />
      <stop offset="1" stop-color="#11263D" />
    </linearGradient>
    <radialGradient id="social-aurora-a" cx="0" cy="0" r="1" gradientUnits="userSpaceOnUse" gradientTransform="translate(956 152) rotate(90) scale(220 312)">
      <stop stop-color="#45D1FF" stop-opacity="0.34" />
      <stop offset="1" stop-color="#45D1FF" stop-opacity="0" />
    </radialGradient>
    <radialGradient id="social-aurora-b" cx="0" cy="0" r="1" gradientUnits="userSpaceOnUse" gradientTransform="translate(284 116) rotate(90) scale(260 350)">
      <stop stop-color="#2E7BF5" stop-opacity="0.34" />
      <stop offset="1" stop-color="#2E7BF5" stop-opacity="0" />
    </radialGradient>
    <linearGradient id="social-mark" x1="0" y1="0" x2="76" y2="88" gradientUnits="userSpaceOnUse">
      <stop stop-color="#17304A" />
      <stop offset="1" stop-color="#0C1726" />
    </linearGradient>
  </defs>
  <rect width="1200" height="630" rx="36" fill="url(#social-bg)" />
  <circle cx="956" cy="152" r="220" fill="url(#social-aurora-a)" />
  <circle cx="284" cy="116" r="260" fill="url(#social-aurora-b)" />
  <rect x="78" y="78" width="1044" height="474" rx="32" fill="rgba(255,255,255,0.04)" stroke="rgba(255,255,255,0.08)" />
  <rect x="116" y="126" width="82" height="82" rx="26" fill="url(#social-mark)" stroke="rgba(123, 198, 255, 0.22)" />
  <path d="M144 142V192" stroke="#EEF6FF" stroke-width="10" stroke-linecap="round" />
  <path d="M178 144L154 167L180 192" stroke="#EEF6FF" stroke-width="10" stroke-linecap="round" stroke-linejoin="round" />
  <path d="M153 167H167" stroke="#63BFFF" stroke-width="8" stroke-linecap="round" />
  <circle cx="178" cy="144" r="7" fill="#63BFFF" />
  <circle cx="154" cy="167" r="7" fill="#EEF6FF" />
  <circle cx="180" cy="192" r="7" fill="#52E7FF" />
  <text x="226" y="182" fill="#F5FAFF" font-family="Space Grotesk, Manrope, Segoe UI, sans-serif" font-size="58" font-weight="700" letter-spacing="-2.6">
    Knoledgr
  </text>
  <text x="118" y="284" fill="#F5FAFF" font-family="Space Grotesk, Manrope, Segoe UI, sans-serif" font-size="78" font-weight="700" letter-spacing="-3.8">
    Context that stays attached
  </text>
  <text x="118" y="358" fill="#F5FAFF" font-family="Space Grotesk, Manrope, Segoe UI, sans-serif" font-size="78" font-weight="700" letter-spacing="-3.8">
    to decisions, docs, and work.
  </text>
  <text x="118" y="432" fill="#9FC8E7" font-family="Manrope, Segoe UI, sans-serif" font-size="28" font-weight="600">
    Searchable team memory for decisions, conversations, projects, and grounded AI answers.
  </text>
  <rect x="118" y="470" width="204" height="52" rx="18" fill="rgba(255,255,255,0.06)" stroke="rgba(255,255,255,0.1)" />
  <text x="144" y="503" fill="#F5FAFF" font-family="IBM Plex Mono, monospace" font-size="20" font-weight="500">
    knoledgr.com
  </text>
  <rect x="782" y="154" width="246" height="256" rx="28" fill="rgba(255,255,255,0.05)" stroke="rgba(255,255,255,0.08)" />
  <path d="M826 346C872 294 928 274 994 284" stroke="rgba(255,255,255,0.24)" stroke-width="4" stroke-linecap="round" />
  <path d="M842 214C874 188 912 182 956 194C998 205 1036 230 1066 262" stroke="rgba(99,197,255,0.3)" stroke-width="4" stroke-linecap="round" />
  <circle cx="842" cy="214" r="14" fill="#2E7BF5" />
  <circle cx="912" cy="188" r="10" fill="#7FC8FF" />
  <circle cx="966" cy="290" r="16" fill="#F4FAFF" />
  <circle cx="1036" cy="230" r="12" fill="#52E7FF" />
  <circle cx="1066" cy="262" r="10" fill="#7FC8FF" />
  <circle cx="826" cy="346" r="10" fill="#F4FAFF" />
</svg>
