<svg width="1600" height="900" viewBox="0 0 1600 900" fill="none" xmlns="http://www.w3.org/2000/svg">
  <defs>
    <linearGradient id="aurora-bg" x1="152" y1="32" x2="1360" y2="840" gradientUnits="userSpaceOnUse">
      <stop stop-color="#07111A" />
      <stop offset="0.52" stop-color="#0C1725" />
      <stop offset="1" stop-color="#0E2030" />
    </linearGradient>
    <radialGradient id="aurora-a" cx="0" cy="0" r="1" gradientUnits="userSpaceOnUse" gradientTransform="translate(1220 170) rotate(90) scale(360 520)">
      <stop stop-color="#45D1FF" stop-opacity="0.38" />
      <stop offset="1" stop-color="#45D1FF" stop-opacity="0" />
    </radialGradient>
    <radialGradient id="aurora-b" cx="0" cy="0" r="1" gradientUnits="userSpaceOnUse" gradientTransform="translate(370 120) rotate(90) scale(420 620)">
      <stop stop-color="#2E7BF5" stop-opacity="0.4" />
      <stop offset="1" stop-color="#2E7BF5" stop-opacity="0" />
    </radialGradient>
    <radialGradient id="aurora-c" cx="0" cy="0" r="1" gradientUnits="userSpaceOnUse" gradientTransform="translate(860 740) rotate(90) scale(280 620)">
      <stop stop-color="#8AB5FF" stop-opacity="0.18" />
      <stop offset="1" stop-color="#8AB5FF" stop-opacity="0" />
    </radialGradient>
  </defs>
  <rect width="1600" height="900" fill="url(#aurora-bg)" />
  <circle cx="1220" cy="170" r="360" fill="url(#aurora-a)" />
  <circle cx="370" cy="120" r="420" fill="url(#aurora-b)" />
  <circle cx="860" cy="740" r="280" fill="url(#aurora-c)" />
  <path d="M-60 278C150 182 338 200 524 290C663 357 783 376 978 316C1143 264 1315 196 1660 260" stroke="rgba(255,255,255,0.08)" stroke-width="2" />
  <path d="M-40 550C186 448 402 454 630 546C800 615 1015 640 1218 572C1369 522 1498 466 1640 480" stroke="rgba(99,197,255,0.14)" stroke-width="2" />
  <path d="M170 800C304 672 512 624 746 654C963 682 1208 772 1508 688" stroke="rgba(255,255,255,0.06)" stroke-width="2" />
</svg>
